<svg version="1.1" xmlns="http://www.w3.org/2000/svg" viewBox="0 0 1062.5 674" width="1062.5" height="674">
  <!-- svg-source:excalidraw -->
  
  <defs>
    <style class="style-fonts">
      @font-face {
        font-family: "Virgil";
        src: url("https://excalidraw.com/Virgil.woff2");
      }
      @font-face {
        font-family: "Cascadia";
        src: url("https://excalidraw.com/Cascadia.woff2");
      }
    </style>
  </defs>
  <g stroke-linecap="round" transform="translate(343 10) rotate(0 17.5 17.5)"><path d="M1.02 18.12 C1.02 18.12, 1.02 18.12, 1.02 18.12 M1.02 18.12 C1.02 18.12, 1.02 18.12, 1.02 18.12 M4.04 20.74 C7.31 14.7, 10.82 10.8, 19.79 2.63 M4.04 20.74 C9.15 14.22, 16.5 7.82, 19.79 2.63 M7.06 23.36 C9.52 18.03, 12.91 17.51, 22.81 5.25 M7.06 23.36 C12.78 18.13, 17.8 10.95, 22.81 5.25 M10.08 25.99 C13.52 19.64, 22.49 13.14, 25.83 7.88 M10.08 25.99 C15.39 20.12, 21.87 12.4, 25.83 7.88 M13.1 28.61 C15.62 25.86, 19.79 21.58, 28.19 11.25 M13.1 28.61 C16.78 23.67, 19.99 19.7, 28.19 11.25 M15.46 31.99 C18.92 28.48, 24.28 20.93, 30.55 14.63 M15.46 31.99 C21.31 25.51, 24.96 19.6, 30.55 14.63 M18.48 34.62 C25.26 28.54, 27.13 21.92, 33.57 17.26 M18.48 34.62 C23 30.11, 27.94 24.27, 33.57 17.26" stroke="#868e96" stroke-width="0.5" fill="none"></path><path d="M22.5 4.5 M22.5 4.5 C26.51 6.72, 27.75 11.24, 30.5 13.5 M22.5 4.5 C24.15 6.08, 26.34 8.91, 30.5 13.5 M30.5 13.5 C36.55 17.21, 36.68 17.36, 30.5 22.5 M30.5 13.5 C36.02 17.42, 34.62 16.36, 30.5 22.5 M30.5 22.5 C26.87 25, 26.35 28.17, 22.5 30.5 M30.5 22.5 C27.09 25.76, 25.06 28.71, 22.5 30.5 M22.5 30.5 C19.67 33.77, 17.15 34.2, 13.5 30.5 M22.5 30.5 C19.45 36.16, 17.53 34.83, 13.5 30.5 M13.5 30.5 C10.69 27.34, 7.94 23.93, 4.5 22.5 M13.5 30.5 C11.59 28.44, 9.82 27.56, 4.5 22.5 M4.5 22.5 C1.97 17.96, -1.22 16.04, 4.5 13.5 M4.5 22.5 C1.59 20.17, 0.89 18.59, 4.5 13.5 M4.5 13.5 C9.09 10.82, 12.85 5.36, 13.5 4.5 M4.5 13.5 C7.09 10.99, 9.42 8.17, 13.5 4.5 M13.5 4.5 C16.6 -0.81, 17.67 0.89, 22.5 4.5 M13.5 4.5 C18.86 1.46, 16.34 1.61, 22.5 4.5" stroke="#000000" stroke-width="1" fill="none"></path></g><g stroke-linecap="round" transform="translate(341 115) rotate(0 16 164.5)"><path d="M2.13 1.85 C2.13 1.85, 2.13 1.85, 2.13 1.85 M2.13 1.85 C2.13 1.85, 2.13 1.85, 2.13 1.85 M1.21 9 C3.71 6.39, 5.72 2.41, 8.43 0.7 M1.21 9 C2.97 5.93, 6.28 3.66, 8.43 0.7 M0.95 15.4 C7.08 12.46, 9.39 4.44, 14.07 0.31 M0.95 15.4 C3.89 12.48, 7.09 8.36, 14.07 0.31 M1.35 21.04 C6.87 14.76, 8.08 14.07, 19.06 0.67 M1.35 21.04 C8.56 12.33, 14.32 4.81, 19.06 0.67 M1.08 27.44 C8.74 18.43, 15.38 13.04, 24.05 1.03 M1.08 27.44 C8.62 19.94, 13.89 11.53, 24.05 1.03 M1.48 33.09 C12.28 21.93, 19.29 13.49, 29.03 1.39 M1.48 33.09 C7.6 25.58, 16.36 17.49, 29.03 1.39 M1.22 39.48 C7.99 32.62, 15.21 23.2, 32.05 4.01 M1.22 39.48 C12.01 28.37, 21.49 17.17, 32.05 4.01 M0.96 45.88 C9.97 37.62, 15.74 25.08, 33.1 8.9 M0.96 45.88 C9.14 35.47, 18.15 24.65, 33.1 8.9 M1.35 51.52 C9.64 40.93, 19.27 31.54, 32.84 15.3 M1.35 51.52 C8.99 44.17, 14.97 33.94, 32.84 15.3 M1.09 57.92 C11.11 44.59, 23.31 32.04, 33.24 20.94 M1.09 57.92 C10.2 48.18, 18.36 36.88, 33.24 20.94 M1.48 63.56 C12.19 53.23, 18.61 40.3, 32.97 27.34 M1.48 63.56 C9.93 53.65, 19.21 41.63, 32.97 27.34 M1.22 69.96 C15.2 57.46, 24.66 43.76, 33.37 32.98 M1.22 69.96 C10.86 57.98, 22.67 46.13, 33.37 32.98 M0.96 76.36 C10.82 65.71, 20.84 54.03, 33.11 39.38 M0.96 76.36 C8.51 66.55, 15.95 58.78, 33.11 39.38 M1.35 82 C12.64 67.19, 24.43 53.15, 32.85 45.78 M1.35 82 C11.56 70.22, 22.8 58.39, 32.85 45.78 M1.09 88.4 C11.58 79.47, 21.99 68.83, 33.24 51.42 M1.09 88.4 C12.38 75.99, 21.98 63.76, 33.24 51.42 M1.49 94.04 C10.31 81.82, 18.83 72.21, 32.98 57.82 M1.49 94.04 C10.1 84.79, 16.94 75.08, 32.98 57.82 M1.23 100.44 C10.12 89.39, 17.91 83.94, 33.37 63.46 M1.23 100.44 C12.16 89.45, 22.32 76.61, 33.37 63.46 M0.96 106.84 C14.5 94.08, 23.54 79.66, 33.11 69.86 M0.96 106.84 C10.62 95.27, 20.9 84.62, 33.11 69.86 M1.36 112.48 C12.65 98.87, 27.28 82, 32.85 76.26 M1.36 112.48 C9.82 103.98, 16.58 96.05, 32.85 76.26 M1.1 118.88 C9.87 108.06, 17.94 99.47, 33.25 81.9 M1.1 118.88 C11.2 106.57, 19.86 95.36, 33.25 81.9 M1.49 124.52 C9.99 114.87, 18.13 107.83, 32.98 88.3 M1.49 124.52 C7.24 117.21, 14.77 110.67, 32.98 88.3 M1.23 130.92 C14.04 117.17, 24.56 102.7, 33.38 93.94 M1.23 130.92 C13.55 116.87, 27.02 101, 33.38 93.94 M0.97 137.32 C8.2 127.41, 19.33 115.12, 33.12 100.34 M0.97 137.32 C10.38 128.18, 17.29 116.44, 33.12 100.34 M1.36 142.96 C14.27 131.4, 22.16 118.63, 32.86 106.74 M1.36 142.96 C9.78 133.43, 17.18 125.16, 32.86 106.74 M1.1 149.36 C10.4 139.9, 16.7 130.53, 33.25 112.38 M1.1 149.36 C12.48 137.68, 23.17 124.49, 33.25 112.38 M1.5 155 C11.95 142.99, 23.54 127.76, 32.99 118.78 M1.5 155 C11.7 143.08, 22.14 132.29, 32.99 118.78 M1.24 161.4 C12.37 147.74, 24.31 135.21, 33.38 124.42 M1.24 161.4 C8.36 152.51, 16.14 143.08, 33.38 124.42 M0.97 167.8 C14.61 152.74, 25.56 138.58, 33.12 130.82 M0.97 167.8 C13.48 154.46, 24.92 140.72, 33.12 130.82 M1.37 173.44 C12.58 161.65, 19.3 150.9, 32.86 137.22 M1.37 173.44 C10.68 164.06, 18.29 154.42, 32.86 137.22 M1.11 179.84 C10.1 169.02, 20.82 155.69, 33.25 142.86 M1.11 179.84 C12.38 167.44, 22.67 154.61, 33.25 142.86 M1.5 185.48 C13.8 171.86, 22.8 161.16, 32.99 149.26 M1.5 185.48 C10.19 175.46, 18.21 166.17, 32.99 149.26 M1.24 191.88 C10.61 180.84, 22.15 167.67, 33.39 154.9 M1.24 191.88 C10.21 181.46, 20.47 169.25, 33.39 154.9 M0.98 198.28 C12.28 184.6, 25.96 170.68, 33.13 161.3 M0.98 198.28 C10.29 186.63, 21.15 173.63, 33.13 161.3 M1.37 203.92 C13.3 190.89, 24.41 180.63, 32.86 167.7 M1.37 203.92 C8.89 194.5, 16.33 186.25, 32.86 167.7 M1.11 210.32 C8.5 199.45, 17.84 191.96, 33.26 173.34 M1.11 210.32 C8.32 201.89, 16.31 191.82, 33.26 173.34 M1.51 215.96 C13.16 203.11, 28.13 189.39, 33 179.74 M1.51 215.96 C12.34 202.73, 23.42 191.21, 33 179.74 M1.25 222.36 C9.08 210.22, 20.81 202.14, 33.39 185.38 M1.25 222.36 C10.61 210.27, 21.15 198.87, 33.39 185.38 M0.98 228.76 C11.6 213.71, 25.42 200.69, 33.13 191.78 M0.98 228.76 C11.74 216.9, 22.43 204.52, 33.13 191.78 M1.38 234.4 C7.75 227.47, 15.04 219.51, 32.87 198.17 M1.38 234.4 C12.95 221.38, 22.14 208.3, 32.87 198.17 M1.12 240.8 C11.03 227.98, 23.96 215.33, 33.26 203.82 M1.12 240.8 C7.53 232.81, 15.73 225.35, 33.26 203.82 M1.51 246.44 C8.3 235.99, 17.59 227.3, 33 210.22 M1.51 246.44 C14.13 232.5, 25.74 218.97, 33 210.22 M1.25 252.84 C9.42 241.81, 19.71 231.65, 33.4 215.86 M1.25 252.84 C9.41 245.37, 15.33 237.09, 33.4 215.86 M0.99 259.24 C11.78 245.97, 22.45 235.65, 33.14 222.26 M0.99 259.24 C9.23 248.33, 18.72 238.45, 33.14 222.26 M1.38 264.88 C8.11 254.68, 16.37 247.67, 32.87 228.65 M1.38 264.88 C10.59 255.82, 18.22 244.99, 32.87 228.65 M1.12 271.28 C11.95 258.03, 19.1 246.93, 33.27 234.3 M1.12 271.28 C9.63 262.96, 16.29 253.46, 33.27 234.3 M0.86 277.68 C12.21 263.97, 24.35 251.12, 33.01 240.7 M0.86 277.68 C9.18 267.72, 18.18 257.18, 33.01 240.7 M1.26 283.32 C7.21 274.82, 18.78 263.55, 32.75 247.09 M1.26 283.32 C9.87 272.93, 17.78 263.39, 32.75 247.09 M0.99 289.72 C8.5 279.3, 16.32 272.81, 33.14 252.74 M0.99 289.72 C9.2 281.44, 16.56 272.11, 33.14 252.74 M1.39 295.36 C11.19 285.42, 17.8 276.06, 32.88 259.13 M1.39 295.36 C9.17 286.89, 15.02 278.6, 32.88 259.13 M1.13 301.76 C13.72 288.12, 27.59 271.58, 33.27 264.78 M1.13 301.76 C13.72 288.51, 26.08 274.52, 33.27 264.78 M0.87 308.16 C8.58 297.7, 15.19 291.21, 33.01 271.17 M0.87 308.16 C10.15 298.16, 18.39 287.41, 33.01 271.17 M1.26 313.8 C10.81 301.81, 23.89 287.24, 32.75 277.57 M1.26 313.8 C12.34 299.58, 25.02 285.26, 32.75 277.57 M0.34 320.95 C11.34 307.62, 25.09 294.74, 33.15 283.22 M0.34 320.95 C9.31 309.74, 19.23 298.39, 33.15 283.22 M1.39 325.84 C10 318.52, 18.25 307.19, 32.88 289.61 M1.39 325.84 C11.87 314.53, 21.67 302.07, 32.88 289.61 M4.41 328.46 C15.28 318.18, 25.32 305.81, 33.28 295.26 M4.41 328.46 C10.82 320.77, 16.69 313.62, 33.28 295.26 M7.43 331.09 C14.75 319.61, 25.21 313.59, 33.02 301.65 M7.43 331.09 C13.29 325.13, 18.65 316.74, 33.02 301.65 M12.42 331.45 C18.92 323.86, 26.91 318.9, 32.76 308.05 M12.42 331.45 C17.86 324.49, 23.73 317.19, 32.76 308.05 M18.06 331.05 C22.99 327.93, 26.4 323.6, 33.15 313.7 M18.06 331.05 C21.65 326.91, 25.85 322.98, 33.15 313.7 M24.36 329.9 C28 326.12, 30.27 321.86, 32.23 320.85 M24.36 329.9 C26.79 327.04, 28.58 325.51, 32.23 320.85" stroke="#fab005" stroke-width="0.5" fill="none"></path><path d="M8 0 M8 0 C13.43 -1.45, 17.51 -0.16, 24 0 M8 0 C12.94 0.4, 17.55 0.02, 24 0 M24 0 C29.44 1.85, 30.26 1.06, 32 8 M24 0 C28.38 1.53, 32.8 4.61, 32 8 M32 8 C34.54 83.25, 34.24 159.32, 32 321 M32 8 C30.94 122.38, 31.68 236.07, 32 321 M32 321 C31.79 326.42, 29.02 329.47, 24 329 M32 321 C34.11 326.91, 30 329.59, 24 329 M24 329 C18.36 329.98, 13.61 328.9, 8 329 M24 329 C19.06 329.09, 13.26 329.73, 8 329 M8 329 C1.06 327.28, -0.84 327, 0 321 M8 329 C3.15 331.07, 1.5 326.37, 0 321 M0 321 C2.43 242.21, 0.68 165.69, 0 8 M0 321 C-1.3 222, -1.63 123.41, 0 8 M0 8 C0.62 2.28, 1.37 -1.64, 8 0 M0 8 C-0.33 0.82, 4.81 -1.47, 8 0" stroke="#000000" stroke-width="1" fill="none"></path></g><g stroke-linecap="round" transform="translate(507 115) rotate(0 16 164.5)"><path d="M2.13 1.85 C2.13 1.85, 2.13 1.85, 2.13 1.85 M2.13 1.85 C2.13 1.85, 2.13 1.85, 2.13 1.85 M1.21 9 C4.88 5.52, 7.23 1.94, 8.43 0.7 M1.21 9 C3.42 5.92, 6.42 2.92, 8.43 0.7 M0.95 15.4 C5.48 11.63, 7.8 6.6, 14.07 0.31 M0.95 15.4 C4.54 11.23, 6.02 9.87, 14.07 0.31 M1.35 21.04 C7.96 12.18, 14.74 6.89, 19.06 0.67 M1.35 21.04 C8.65 12.2, 15.94 4.41, 19.06 0.67 M1.08 27.44 C8.94 19.1, 18.52 6.53, 24.05 1.03 M1.08 27.44 C6.65 19.84, 12.75 13.32, 24.05 1.03 M1.48 33.09 C7.03 26.59, 13.73 19.43, 29.03 1.39 M1.48 33.09 C10.92 21.66, 21.56 11.25, 29.03 1.39 M1.22 39.48 C7.44 31.29, 14.53 23.92, 32.05 4.01 M1.22 39.48 C9.75 29.56, 19.3 17.54, 32.05 4.01 M0.96 45.88 C8.22 36.68, 19.25 24.22, 33.1 8.9 M0.96 45.88 C12.13 32.98, 24.05 19.83, 33.1 8.9 M1.35 51.52 C11.66 39.02, 22.07 31.23, 32.84 15.3 M1.35 51.52 C12.81 39.21, 24.02 26.5, 32.84 15.3 M1.09 57.92 C12.3 43.37, 25.68 32.2, 33.24 20.94 M1.09 57.92 C8.41 50.96, 13.59 42.06, 33.24 20.94 M1.48 63.56 C11 51.62, 20.92 39.84, 32.97 27.34 M1.48 63.56 C10.75 53.68, 19.24 42.47, 32.97 27.34 M1.22 69.96 C7.86 59.78, 19.94 50.43, 33.37 32.98 M1.22 69.96 C11.98 59.52, 21.37 47.17, 33.37 32.98 M0.96 76.36 C8.62 68.4, 17.96 56.6, 33.11 39.38 M0.96 76.36 C10.89 66.59, 20.28 54.47, 33.11 39.38 M1.35 82 C9.94 71.1, 22.35 60.35, 32.85 45.78 M1.35 82 C11.21 71.19, 21.22 60.2, 32.85 45.78 M1.09 88.4 C14.37 74.35, 22.87 60.82, 33.24 51.42 M1.09 88.4 C13.49 74.57, 26.83 60.02, 33.24 51.42 M1.49 94.04 C10.75 79.62, 23.73 69.6, 32.98 57.82 M1.49 94.04 C10.89 83.88, 17.77 75.33, 32.98 57.82 M1.23 100.44 C9.87 93.47, 13.72 85.27, 33.37 63.46 M1.23 100.44 C12.59 87.55, 23.69 75.86, 33.37 63.46 M0.96 106.84 C7.38 99.62, 16.35 89.24, 33.11 69.86 M0.96 106.84 C11.41 95.19, 20.77 82.53, 33.11 69.86 M1.36 112.48 C8.31 103.79, 15.94 96.92, 32.85 76.26 M1.36 112.48 C11.35 101.74, 19.7 92.05, 32.85 76.26 M1.1 118.88 C12.84 105.85, 20.77 96.17, 33.25 81.9 M1.1 118.88 C13.16 105.58, 24.15 91.62, 33.25 81.9 M1.49 124.52 C5.88 116.87, 14.43 110.94, 32.98 88.3 M1.49 124.52 C13.08 109.66, 25.62 95.44, 32.98 88.3 M1.23 130.92 C12.02 117.04, 23.68 107.81, 33.38 93.94 M1.23 130.92 C13.82 116.99, 25.72 102.83, 33.38 93.94 M0.97 137.32 C12.2 123.94, 22.43 113.12, 33.12 100.34 M0.97 137.32 C14.19 122.81, 24.78 110.21, 33.12 100.34 M1.36 142.96 C10.49 131.05, 18.53 121.25, 32.86 106.74 M1.36 142.96 C12.8 130.47, 23.41 117.24, 32.86 106.74 M1.1 149.36 C6.99 142.35, 15.02 130.83, 33.25 112.38 M1.1 149.36 C9.81 138.76, 18.55 127.85, 33.25 112.38 M1.5 155 C7.93 144.71, 18.35 139.04, 32.99 118.78 M1.5 155 C12.24 142.76, 22.69 130.32, 32.99 118.78 M1.24 161.4 C10.61 152.21, 16.51 141.46, 33.38 124.42 M1.24 161.4 C8.4 153.06, 16.9 144.23, 33.38 124.42 M0.97 167.8 C8.85 157.74, 20.52 146.72, 33.12 130.82 M0.97 167.8 C11.26 155.95, 22.3 144.81, 33.12 130.82 M1.37 173.44 C13.72 158.1, 27.49 143.17, 32.86 137.22 M1.37 173.44 C10.56 163.97, 18.76 153.52, 32.86 137.22 M1.11 179.84 C12.12 166.09, 23.04 152.78, 33.25 142.86 M1.11 179.84 C8.74 170.86, 16.05 163.5, 33.25 142.86 M1.5 185.48 C9.3 175.65, 17.35 168.27, 32.99 149.26 M1.5 185.48 C8.5 177.7, 15.29 168.04, 32.99 149.26 M1.24 191.88 C8.41 181.82, 17.79 172.22, 33.39 154.9 M1.24 191.88 C13.46 179.79, 23.95 166.43, 33.39 154.9 M0.98 198.28 C10.72 184.57, 22.32 174.24, 33.13 161.3 M0.98 198.28 C11.81 187.93, 20.61 176.38, 33.13 161.3 M1.37 203.92 C13.15 188.77, 25.12 177.28, 32.86 167.7 M1.37 203.92 C9.85 194.84, 17.6 184.99, 32.86 167.7 M1.11 210.32 C10.87 201.07, 20.57 189.27, 33.26 173.34 M1.11 210.32 C10.98 197.78, 21.19 186.99, 33.26 173.34 M1.51 215.96 C9.52 208.3, 17.89 197.2, 33 179.74 M1.51 215.96 C10.93 205.21, 20.32 194.78, 33 179.74 M1.25 222.36 C7.92 214.35, 14.44 208.94, 33.39 185.38 M1.25 222.36 C9.06 214.96, 16.09 206.16, 33.39 185.38 M0.98 228.76 C12.52 214.87, 24.96 201.46, 33.13 191.78 M0.98 228.76 C10.09 218.62, 18.25 207.96, 33.13 191.78 M1.38 234.4 C12.86 223.8, 21.19 212.79, 32.87 198.17 M1.38 234.4 C13.43 221.4, 25.69 207.43, 32.87 198.17 M1.12 240.8 C13.3 227.81, 23.22 216.89, 33.26 203.82 M1.12 240.8 C8.83 233.02, 16.46 225.33, 33.26 203.82 M1.51 246.44 C10.59 237.52, 18.98 224.14, 33 210.22 M1.51 246.44 C10.22 235.97, 19.39 225.05, 33 210.22 M1.25 252.84 C9.96 239.63, 21.09 228.02, 33.4 215.86 M1.25 252.84 C15 237.62, 27.47 224.41, 33.4 215.86 M0.99 259.24 C13.57 246.68, 24.43 232.41, 33.14 222.26 M0.99 259.24 C12.1 248.78, 20.6 237.19, 33.14 222.26 M1.38 264.88 C14.92 248.95, 26.5 236.82, 32.87 228.65 M1.38 264.88 C9.94 255.07, 18.05 245.4, 32.87 228.65 M1.12 271.28 C7.36 263.29, 17.25 256.12, 33.27 234.3 M1.12 271.28 C10.65 261.03, 21.86 249.14, 33.27 234.3 M0.86 277.68 C11.09 268.92, 18.94 256.55, 33.01 240.7 M0.86 277.68 C12.51 263.95, 25.39 248.21, 33.01 240.7 M1.26 283.32 C10.28 274.92, 16.12 263.99, 32.75 247.09 M1.26 283.32 C13.85 269.02, 25.27 257.01, 32.75 247.09 M0.99 289.72 C9.64 280.34, 19.9 267.25, 33.14 252.74 M0.99 289.72 C10.47 279.68, 19.26 269.05, 33.14 252.74 M1.39 295.36 C10.87 284.1, 20.51 271.23, 32.88 259.13 M1.39 295.36 C10.46 283.3, 21.1 272.99, 32.88 259.13 M1.13 301.76 C9.21 291.45, 16.98 280.51, 33.27 264.78 M1.13 301.76 C12.11 288.55, 22.39 276.12, 33.27 264.78 M0.87 308.16 C6.96 300.32, 15.12 292.9, 33.01 271.17 M0.87 308.16 C8.05 300.5, 14.67 292.05, 33.01 271.17 M1.26 313.8 C7.68 305.74, 15.09 299.76, 32.75 277.57 M1.26 313.8 C12.85 301.57, 23.81 288.3, 32.75 277.57 M0.34 320.95 C8.89 309.81, 15.22 304.13, 33.15 283.22 M0.34 320.95 C9.26 311.38, 17.94 301.17, 33.15 283.22 M1.39 325.84 C7.06 317.12, 16.54 309.52, 32.88 289.61 M1.39 325.84 C13.03 312.62, 26.68 298.66, 32.88 289.61 M4.41 328.46 C14.57 316.22, 24.17 306.84, 33.28 295.26 M4.41 328.46 C10.25 320.53, 17.18 314.25, 33.28 295.26 M7.43 331.09 C15.34 325.3, 21.32 317.21, 33.02 301.65 M7.43 331.09 C15.33 322.92, 22.65 314.85, 33.02 301.65 M12.42 331.45 C22.29 322.92, 29.61 314.94, 32.76 308.05 M12.42 331.45 C18.96 325.13, 24.78 317.81, 32.76 308.05 M18.06 331.05 C22.62 327.48, 26.54 320.43, 33.15 313.7 M18.06 331.05 C24.04 324.88, 28.68 319.6, 33.15 313.7 M24.36 329.9 C27.59 326.11, 29.97 324.31, 32.23 320.85 M24.36 329.9 C25.63 327.33, 27.98 325.55, 32.23 320.85" stroke="#7950f2" stroke-width="0.5" fill="none"></path><path d="M8 0 M8 0 C11.72 -1.32, 17.07 -1.08, 24 0 M8 0 C12.58 0.62, 17.25 0.32, 24 0 M24 0 C28.19 -1.32, 32.74 2.49, 32 8 M24 0 C28.6 -0.21, 31.53 3.38, 32 8 M32 8 C30.09 76.9, 31.12 146.52, 32 321 M32 8 C29.59 80.14, 30.17 151.38, 32 321 M32 321 C30.32 327.83, 31.29 328.21, 24 329 M32 321 C33.65 326.87, 28.49 330.55, 24 329 M24 329 C19.77 330.28, 17.96 327.61, 8 329 M24 329 C18.16 329.5, 14.36 329.52, 8 329 M8 329 C3.54 329.43, 0.11 326.74, 0 321 M8 329 C4.53 330.44, 0.22 327.99, 0 321 M0 321 C1.18 212.64, 2.74 106.71, 0 8 M0 321 C1.75 228.83, 0.63 136.49, 0 8 M0 8 C-0.51 2.22, 0.9 1.44, 8 0 M0 8 C0.58 2.18, 0.48 1.31, 8 0" stroke="#000000" stroke-width="1" fill="none"></path></g><g stroke-linecap="round"><g transform="translate(357.7451565176908 47.74515651769073) rotate(0 0.3280470567896714 31.253348402459764)"><path d="M-0.3 1.12 C-0.43 11.37, -0.03 50.29, -0.03 60.29 M1.75 0.67 C1.37 11.22, -0.58 52.08, -1.09 61.84" stroke="#000000" stroke-width="1" fill="none"></path></g><g transform="translate(357.7451565176908 47.74515651769073) rotate(0 0.3280470567896714 31.253348402459764)"><path d="M-8.08 32.81 C-6.96 42.8, -2.39 55.77, 0.85 62.93 M-10.47 32.71 C-6.76 41.25, -5.31 49.27, -2 61.25" stroke="#000000" stroke-width="1" fill="none"></path></g><g transform="translate(357.7451565176908 47.74515651769073) rotate(0 0.3280470567896714 31.253348402459764)"><path d="M12.42 33.82 C6.1 43.39, 3.24 56, 0.85 62.93 M10.03 33.72 C7.97 41.9, 3.66 49.63, -2 61.25" stroke="#000000" stroke-width="1" fill="none"></path></g></g><mask></mask><g stroke-linecap="round"><g transform="translate(384 27) rotate(0 71.44891620539494 39.23263998744227)"><path d="M0.64 0.29 C21.92 0.95, 104.8 -8.52, 128.05 4.72 C151.29 17.95, 137.77 67.22, 140.11 79.69 M-0.48 -0.6 C20.7 0.17, 103.81 -7.47, 127.65 6.1 C151.49 19.68, 140.6 68.47, 142.53 80.84" stroke="#000000" stroke-width="1" fill="none"></path></g><g transform="translate(384 27) rotate(0 71.44891620539494 39.23263998744227)"><path d="M133.41 54.17 C135.82 60.31, 138.96 73.03, 141.71 82.38 M133.71 52.91 C136.74 59.62, 137.64 66.65, 142.86 81.19" stroke="#000000" stroke-width="1" fill="none"></path></g><g transform="translate(384 27) rotate(0 71.44891620539494 39.23263998744227)"><path d="M153.93 54.64 C149.53 60.73, 145.87 73.3, 141.71 82.38 M154.22 53.38 C151.76 60.05, 147.16 66.96, 142.86 81.19" stroke="#000000" stroke-width="1" fill="none"></path></g></g><mask></mask><g transform="translate(173 467) rotate(0 106.5 13)"><text x="0" y="18" font-family="Virgil, Segoe UI Emoji" font-size="20px" fill="#000000" text-anchor="start" style="white-space: pre;" direction="ltr">Render (Main) Thread</text></g><g transform="translate(494 467) rotate(0 61 13)"><text x="0" y="18" font-family="Virgil, Segoe UI Emoji" font-size="20px" fill="#000000" text-anchor="start" style="white-space: pre;" direction="ltr">CPU Thread</text></g><g stroke-linecap="round" transform="translate(559 176) rotate(0 63 67.5)"><path d="M69.26 1.41 C78.46 1.54, 89.58 5.09, 97.77 10.86 C105.97 16.62, 113.74 26.51, 118.41 36.01 C123.09 45.5, 125.86 57.53, 125.81 67.8 C125.75 78.07, 122.61 88.58, 118.08 97.6 C113.56 106.62, 106.62 115.82, 98.66 121.91 C90.69 128, 79.82 132.63, 70.28 134.14 C60.73 135.64, 50.26 134.47, 41.4 130.95 C32.55 127.42, 23.86 120.85, 17.13 112.99 C10.4 105.14, 3.51 93.81, 1.02 83.81 C-1.46 73.8, -0.29 62.98, 2.21 52.95 C4.72 42.91, 9.67 31.6, 16.05 23.6 C22.43 15.61, 30.71 8.82, 40.5 4.99 C50.28 1.17, 68.37 0.83, 74.75 0.65 C81.13 0.48, 79.16 2.6, 78.8 3.92" stroke="#000000" stroke-width="1.5" fill="none" stroke-dasharray="1.5 7"></path></g><g transform="translate(568.5 217.5) rotate(0 53.5 26)"><text x="53.5" y="18" font-family="Virgil, Segoe UI Emoji" font-size="20px" fill="#000000" text-anchor="middle" style="white-space: pre;" direction="ltr">processing </text><text x="53.5" y="44" font-family="Virgil, Segoe UI Emoji" font-size="20px" fill="#000000" text-anchor="middle" style="white-space: pre;" direction="ltr">loop</text></g><g transform="translate(701.5 223) rotate(0 175.5 13)"><text x="175.5" y="18" font-family="Virgil, Segoe UI Emoji" font-size="20px" fill="#000000" text-anchor="middle" style="white-space: pre;" direction="ltr">CPU speed control with SDL_Delay</text></g><g transform="translate(34.5 237) rotate(0 141.5 13)"><text x="141.5" y="18" font-family="Virgil, Segoe UI Emoji" font-size="20px" fill="#000000" text-anchor="middle" style="white-space: pre;" direction="ltr">FPS control with SDL_Delay</text></g><g transform="translate(10 528) rotate(0 518 68)"><text x="0" y="24" font-family="Virgil, Segoe UI Emoji" font-size="26.70896114195085px" fill="#000000" text-anchor="start" style="white-space: pre;" direction="ltr">Shared mutable vars:</text><text x="0" y="58" font-family="Virgil, Segoe UI Emoji" font-size="26.70896114195085px" fill="#000000" text-anchor="start" style="white-space: pre;" direction="ltr">- Timers (those be mutated on the cpu thread loop. or use another thread...)</text><text x="0" y="92" font-family="Virgil, Segoe UI Emoji" font-size="26.70896114195085px" fill="#000000" text-anchor="start" style="white-space: pre;" direction="ltr">- Loggers (should use mutex)</text><text x="0" y="126" font-family="Virgil, Segoe UI Emoji" font-size="26.70896114195085px" fill="#000000" text-anchor="start" style="white-space: pre;" direction="ltr">- SDL Calls?</text></g></svg>